<?xml version="1.0" encoding="iso-8859-1"?>
<!-- Generator: Adobe Illustrator 16.0.0, SVG Export Plug-In . SVG Version: 6.00 Build 0)  -->
<!DOCTYPE svg PUBLIC "-//W3C//DTD SVG 1.1//EN" "http://www.w3.org/Graphics/SVG/1.1/DTD/svg11.dtd">
<svg version="1.1" id="Capa_1" xmlns="http://www.w3.org/2000/svg" xmlns:xlink="http://www.w3.org/1999/xlink" x="0px" y="0px"
	 width="455.573px" height="455.573px" viewBox="0 0 455.573 455.573" style="enable-background:new 0 0 455.573 455.573;"
	 xml:space="preserve">
<g>
	<path d="M37.605,319.104v-28.74h99.709v28.74H37.605z M125.504,85.832c5.132,0,9.299-4.169,9.299-9.297
		c0-5.122-4.167-9.288-9.299-9.288c-5.123,0-9.292,4.166-9.292,9.288C116.212,81.662,120.381,85.832,125.504,85.832z
		 M185.829,85.832c5.134,0,9.301-4.169,9.301-9.297c0-5.122-4.167-9.288-9.301-9.288c-5.122,0-9.292,4.166-9.292,9.288
		C176.538,81.662,180.708,85.832,185.829,85.832z M137.422,243.562c0.582-11.229,9.805-20.197,21.163-20.197h48.055v-8.539H37.605
		v28.736H137.422L137.422,243.562z M137.314,366.552H0V27.221h241.721v196.144h-19.864v-23.75H22.392v59.161h114.923v16.377H22.392
		v59.169h114.923V366.552z M161.326,76.534c0,13.516,10.993,24.51,24.503,24.51c13.513,0,24.516-10.994,24.516-24.51
		c0-13.507-11.002-24.509-24.516-24.509C172.319,52.025,161.326,63.027,161.326,76.534z M101,76.534
		c0,13.516,10.993,24.51,24.503,24.51c13.515,0,24.514-10.994,24.514-24.51c0-13.507-10.999-24.509-24.514-24.509
		C111.994,52.025,101,63.027,101,76.534z M22.392,182.18h199.465v-59.161H22.392V182.18z M37.605,138.234h169.04v28.739H37.605
		V138.234z M171.988,155.559h23.142v-8.031h-23.142V155.559z M455.573,261.001v147.738c0,10.812-8.796,19.613-19.611,19.613H173.736
		c-10.816,0-19.612-8.801-19.612-19.613V261.001c0-10.812,8.796-19.611,19.612-19.611h262.23
		C446.777,241.39,455.573,250.188,455.573,261.001z M185.414,258.199l120.143,79.459l113.883-79.459H185.414z M438.764,265.231
		L305.81,357.971l-134.875-89.205v139.968c0,1.537,1.261,2.802,2.801,2.802h262.23c1.541,0,2.802-1.265,2.802-2.802V265.231H438.764
		z M310.208,208.275c0.837,0.649,2.013,0.654,2.867,0.005c0.845-0.631,1.148-1.759,0.766-2.747L302.229,176.1h20.269
		c4.412,0.225,18.905,1.721,28.738,11.376c6.924,6.785,10.29,16.345,10.29,29.236h28.217c0.005-20.574-6.293-37.195-18.734-49.387
		c-20.21-19.835-49.146-19.51-50.408-19.488v0.246c-1.988-0.172-3.411-0.252-3.411-0.252l-14.96-0.038l11.616-29.429
		c0.392-0.987,0.074-2.115-0.771-2.752c-0.421-0.32-0.925-0.47-1.423-0.47c-0.515,0-1.019,0.156-1.444,0.481l-57.812,44.458
		c-0.585,0.448-0.925,1.138-0.919,1.866c0,0.733,0.345,1.423,0.919,1.872L310.208,208.275z"/>
</g>
<g>
</g>
<g>
</g>
<g>
</g>
<g>
</g>
<g>
</g>
<g>
</g>
<g>
</g>
<g>
</g>
<g>
</g>
<g>
</g>
<g>
</g>
<g>
</g>
<g>
</g>
<g>
</g>
<g>
</g>
</svg>
